<?xml version="1.0" encoding="UTF-8"?>
<svg xmlns="http://www.w3.org/2000/svg" xmlns:xlink="http://www.w3.org/1999/xlink" viewBox="0 0 48 48" width="48px" height="48px">
<g id="surface113223850">
<path style=" stroke:none;fill-rule:nonzero;fill:rgb(8.235294%,39.607844%,75.294119%);fill-opacity:1;" d="M 10 12 L 13 37 L 4.980469 28.980469 C 3.792969 27.792969 3.472656 25.984375 4.183594 24.460938 Z M 10 12 "/>
<path style=" stroke:none;fill-rule:nonzero;fill:rgb(25.882354%,64.705884%,96.078432%);fill-opacity:1;" d="M 27.320312 6.320312 C 26.472656 5.472656 25.328125 5 24.136719 5 C 23.390625 5 22.65625 5.183594 22 5.539062 L 10 12 L 10 32.34375 C 10 33.402344 10.421875 34.421875 11.171875 35.171875 L 13 37 L 35 37 L 35 32 L 42 21 Z M 27.320312 6.320312 "/>
<path style=" stroke:none;fill-rule:nonzero;fill:rgb(8.235294%,39.607844%,75.294119%);fill-opacity:1;" d="M 10 12 L 31.34375 12 C 32.402344 12 33.421875 12.421875 34.171875 13.171875 L 42 21 L 42 37 L 35 37 Z M 10 12 "/>
<path style=" stroke:none;fill-rule:nonzero;fill:rgb(52.156866%,79.607844%,97.254902%);fill-opacity:1;" d="M 35 37 L 13 37 L 19 43 L 35 43 Z M 35 37 "/>
<path style=" stroke:none;fill-rule:nonzero;fill:rgb(100%,100%,100%);fill-opacity:1;" d="M 18.125 22.117188 L 18.125 22.597656 L 17.816406 22.65625 L 18.523438 25.046875 L 18.574219 25.265625 L 18.59375 25.265625 L 18.636719 25.050781 L 19.347656 22.65625 L 19.046875 22.597656 L 19.046875 22.117188 L 20.503906 22.117188 L 20.503906 22.597656 L 20.167969 22.644531 L 18.992188 26.109375 L 18.171875 26.109375 L 16.992188 22.644531 L 16.664062 22.597656 L 16.664062 22.117188 Z M 20.742188 26.109375 L 20.742188 25.628906 L 21.128906 25.546875 L 21.128906 23.707031 L 20.703125 23.625 L 20.703125 23.140625 L 21.929688 23.140625 L 21.929688 25.546875 L 22.3125 25.628906 L 22.3125 26.109375 Z M 21.929688 21.832031 L 21.929688 22.429688 L 21.128906 22.429688 L 21.128906 21.832031 Z M 25.445312 24.648438 L 25.445312 24.707031 C 25.445312 25.148438 25.347656 25.503906 25.148438 25.769531 C 24.949219 26.035156 24.664062 26.167969 24.292969 26.167969 C 24.121094 26.167969 23.96875 26.128906 23.839844 26.058594 C 23.710938 25.984375 23.605469 25.878906 23.519531 25.742188 L 23.460938 26.109375 L 22.769531 26.109375 L 22.769531 22.398438 L 22.34375 22.3125 L 22.34375 21.832031 L 23.566406 21.832031 L 23.566406 23.457031 C 23.652344 23.339844 23.753906 23.246094 23.875 23.183594 C 23.996094 23.121094 24.132812 23.085938 24.289062 23.085938 C 24.664062 23.085938 24.949219 23.230469 25.148438 23.515625 C 25.347656 23.800781 25.445312 24.175781 25.445312 24.648438 Z M 24.648438 24.707031 L 24.648438 24.648438 C 24.648438 24.359375 24.605469 24.132812 24.519531 23.964844 C 24.433594 23.796875 24.289062 23.710938 24.085938 23.710938 C 23.960938 23.710938 23.855469 23.734375 23.769531 23.785156 C 23.683594 23.839844 23.617188 23.914062 23.566406 24.011719 L 23.566406 25.261719 C 23.617188 25.355469 23.683594 25.425781 23.769531 25.472656 C 23.855469 25.519531 23.964844 25.542969 24.089844 25.542969 C 24.296875 25.542969 24.441406 25.472656 24.523438 25.324219 C 24.605469 25.179688 24.648438 24.976562 24.648438 24.707031 Z M 27.234375 26.167969 C 26.804688 26.167969 26.464844 26.03125 26.210938 25.753906 C 25.953125 25.480469 25.824219 25.132812 25.824219 24.710938 L 25.824219 24.601562 C 25.824219 24.160156 25.945312 23.796875 26.1875 23.511719 C 26.429688 23.226562 26.757812 23.085938 27.160156 23.085938 C 27.5625 23.085938 27.875 23.207031 28.09375 23.449219 C 28.316406 23.691406 28.429688 24.015625 28.429688 24.425781 L 28.429688 24.863281 L 26.65625 24.863281 L 26.652344 24.882812 C 26.667969 25.074219 26.730469 25.234375 26.847656 25.363281 C 26.964844 25.488281 27.121094 25.550781 27.320312 25.550781 C 27.496094 25.550781 27.644531 25.535156 27.761719 25.5 C 27.878906 25.464844 28.007812 25.40625 28.144531 25.332031 L 28.359375 25.820312 C 28.238281 25.917969 28.082031 26 27.886719 26.066406 C 27.691406 26.132812 27.476562 26.167969 27.234375 26.167969 Z M 27.160156 23.707031 C 27.015625 23.707031 26.898438 23.761719 26.8125 23.875 C 26.726562 23.988281 26.675781 24.136719 26.652344 24.320312 L 26.664062 24.335938 L 27.640625 24.335938 L 27.640625 24.265625 C 27.640625 24.09375 27.601562 23.957031 27.523438 23.855469 C 27.445312 23.753906 27.324219 23.707031 27.160156 23.707031 Z M 31.21875 23.425781 L 31.226562 24.164062 L 30.6875 24.164062 L 30.601562 23.792969 C 30.550781 23.746094 30.480469 23.710938 30.394531 23.683594 C 30.3125 23.652344 30.222656 23.636719 30.121094 23.636719 C 29.980469 23.636719 29.867188 23.667969 29.785156 23.734375 C 29.703125 23.796875 29.664062 23.875 29.664062 23.96875 C 29.664062 24.058594 29.703125 24.132812 29.78125 24.195312 C 29.859375 24.253906 30.015625 24.304688 30.253906 24.351562 C 30.621094 24.425781 30.890625 24.53125 31.070312 24.671875 C 31.246094 24.8125 31.335938 25.007812 31.335938 25.257812 C 31.335938 25.523438 31.222656 25.742188 30.992188 25.910156 C 30.761719 26.082031 30.460938 26.167969 30.085938 26.167969 C 29.855469 26.167969 29.644531 26.132812 29.457031 26.066406 C 29.265625 26 29.09375 25.902344 28.949219 25.78125 L 28.9375 25.113281 L 29.496094 25.113281 L 29.609375 25.5 C 29.65625 25.539062 29.722656 25.570312 29.804688 25.589844 C 29.886719 25.609375 29.972656 25.617188 30.0625 25.617188 C 30.222656 25.617188 30.347656 25.585938 30.433594 25.53125 C 30.515625 25.472656 30.558594 25.390625 30.558594 25.292969 C 30.558594 25.203125 30.515625 25.128906 30.433594 25.0625 C 30.347656 25 30.1875 24.941406 29.957031 24.894531 C 29.609375 24.820312 29.34375 24.714844 29.167969 24.578125 C 28.988281 24.4375 28.898438 24.246094 28.898438 24.003906 C 28.898438 23.757812 29 23.542969 29.207031 23.363281 C 29.410156 23.183594 29.703125 23.09375 30.082031 23.09375 C 30.3125 23.09375 30.527344 23.125 30.734375 23.1875 C 30.9375 23.246094 31.101562 23.328125 31.21875 23.425781 Z M 31.21875 23.425781 "/>
</g>
</svg>
